:FULLY-SPECIFIED
:FORCE-ALL-JOINTS-BE-3DOF
:DEGREES
306
root 9.02057 15.4468 -23.8208 12.2855 58.2082 15.7027
lfemur -16.561 19.0668 -17.9674
ltibia 52.1335 -0 0
lfoot -17.2365 -25.9936 0.0197295
ltoes 58.862 -0 0
rfemur -54.6409 -21.1118 37.3221
rtibia 57.79 -0 0
rfoot 17.2526 17.2266 -0.00937545
rtoes -0.509856 0 0
lowerback 9.67981 -3.21896 -8.47681
upperback 5.07689 -4.82285 -4.06345
thorax 0.259805 -2.43899 0.936261
lowerneck -5.61696 -10.3172 -2.30296
upperneck -2.58637 -13.6512 10.6528
head 1.12473 -6.71076 3.36028
lclavicle -3.25996e-14 -1.44185e-14 -1.6343e-31
lhumerus -42.4665 -42.3522 99.252
lradius 59.1381 -0 0
lwrist 21.4257 0 0
lhand 13.4896 11.4494 -0.000786782
lfingers 7.12502 -0 0
lthumb 38.4277 37.1285 -0.00154944
rclavicle -3.25996e-14 -1.44185e-14 -1.6343e-31
rhumerus -34.9144 70.7215 -69.6882
rradius 80.895 -0 0
rwrist 4.44864 0 0
rhand 5.70786 -5.34022 -0.194065
rfingers 7.12502 -0 0
rthumb 31.0465 -32.7898 -0.185957
307
root 9.03556 15.4426 -23.7909 12.3034 58.1706 15.8217
lfemur -16.3346 19.0629 -17.9456
ltibia 52.1156 0 0
lfoot -17.3099 -25.9107 0
ltoes 58.5917 0 0
rfemur -55.0266 -21.1301 37.4161
rtibia 57.7782 0 0
rfoot 17.2081 17.352 0
rtoes -0.30275 0 0
lowerback 9.73871 -3.19862 -8.51413
upperback 5.12525 -4.80127 -4.11015
thorax 0.275237 -2.43 0.909921
lowerneck -5.55651 -10.361 -2.27002
upperneck -2.6718 -13.7054 10.7194
head 1.09146 -6.74108 3.37883
lclavicle -3.33958e-14 -1.43125e-14 0
lhumerus -42.4065 -42.5304 99.1545
lradius 59.1219 0 0
lwrist 21.3914 0 0
lhand 13.5646 11.4558 0
lfingers 7.12502 0 0
lthumb 38.4988 37.1176 0
rclavicle -3.33958e-14 -1.43125e-14 0
rhumerus -33.9357 70.9667 -68.9449
rradius 81.2445 0 0
rwrist 3.93263 0 0
rhand 5.47149 -5.7173 0
rfingers 7.12502 0 0
rthumb 30.8196 -753.153 0
308
root 9.06745 15.4352 -23.71 12.3028 57.9539 16.0291
lfemur -15.7637 19.073 -17.8604
ltibia 51.988 -0 0
lfoot -17.5504 -25.4833 -0.0632758
ltoes 57.6746 -0 0
rfemur -55.8564 -21.0905 37.329
rtibia 57.7356 -0 0
rfoot 17.0442 17.4142 0.0372263
rtoes 0.427106 -0 0
lowerback 9.85655 -3.13174 -8.56629
upperback 5.23072 -4.72148 -4.20041
thorax 0.311778 -2.39425 0.845781
lowerneck -5.39712 -10.4797 -2.15703
upperneck -2.90403 -13.8522 10.848
head 0.996243 -6.82427 3.40983
lclavicle -3.58768e-14 -1.38178e-14 5.07223e-31
lhumerus -42.3119 -43.0498 99.0327
lradius 59.0898 -0 0
lwrist 21.2653 0 0
lhand 13.7504 11.486 0.00195184
lfingers 7.12502 -0 0
lthumb 38.6748 37.1045 0.00381515
rclavicle -3.58768e-14 -1.38178e-14 5.07223e-31
rhumerus -30.9071 71.0463 -66.589
rradius 82.0507 -0 0
rwrist 2.58797 0 0
rhand 4.46808 -6.92377 0.617036
rfingers 7.12502 -0 0
rthumb 29.8561 -34.3349 0.595899
309
root 9.08736 15.4332 -23.6293 12.2353 57.5791 16.0793
lfemur -15.2503 19.111 -17.7383
ltibia 51.7519 -0 0
lfoot -17.8506 -24.7792 -0.138201
ltoes 56.5133 -0 0
rfemur -56.3889 -20.9353 36.7734
rtibia 57.6763 -0 0
rfoot 16.8159 17.0921 0.0914736
rtoes 1.39864 -0 0
lowerback 9.91744 -3.04877 -8.55115
upperback 5.30133 -4.61243 -4.24102
thorax 0.341084 -2.34281 0.791337
lowerneck -5.24355 -10.5985 -2.01095
upperneck -3.13767 -13.9991 10.9057
head 0.89384 -6.90899 3.41447
lclavicle -3.89039e-14 -1.30223e-14 1.09542e-30
lhumerus -42.3146 -43.621 99.1096
lradius 59.074 -0 0
lwrist 21.0933 0 0
lhand 13.9126 11.5339 0.00359339
lfingers 7.12502 -0 0
lthumb 38.8283 37.1142 0.00701175
rclavicle -3.89039e-14 -1.30223e-14 1.09542e-30
rhumerus -27.6534 70.3044 -64.0514
rradius 82.6663 -0 0
rwrist 1.31138 0 0
rhand 2.95345 -8.39758 1.34191
rfingers 7.12502 -0 0
rthumb 28.4013 -35.8017 1.30134
310
root 9.09635 15.4359 -23.549 12.1109 57.062 15.99
lfemur -14.7905 19.1739 -17.5828
ltibia 51.4183 -0 0
lfoot -18.204 -23.8254 -0.220086
ltoes 55.1302 -0 0
rfemur -56.6531 -20.6782 35.7955
rtibia 57.6018 -0 0
rfoot 16.5295 16.4221 0.158311
rtoes 2.58652 -0 0
lowerback 9.92655 -2.9516 -8.47511
upperback 5.34018 -4.47736 -4.23653
thorax 0.363762 -2.27736 0.74586
lowerneck -5.0959 -10.7172 -1.83539
upperneck -3.37154 -14.146 10.899
head 0.785335 -6.99485 3.39523
lclavicle -4.23944e-14 -1.19603e-14 1.71714e-30
lhumerus -42.4108 -44.2368 99.3709
lradius 59.0731 -0 0
lwrist 20.8803 0 0
lhand 14.0526 11.5977 0.00489392
lfingers 7.12502 -0 0
lthumb 38.9609 37.1444 0.00955647
rclavicle -4.23944e-14 -1.19603e-14 1.71714e-30
rhumerus -24.5431 68.8112 -61.696
rradius 83.1074 -0 0
rwrist 0.101283 0 0
rhand 0.970672 -10.1218 2.13029
rfingers 7.12502 -0 0
rthumb 26.496 -37.5342 2.07266
